PathFileType  4	(X/Y/Z) C:\Users\antoi\Documents\MyRepositories\mobilecap\ResultsAnalysis
DataRate	CameraRate	NumFrames	NumMarkers	Units	OrigDataRate	OrigDataStartFrame	OrigNumFrames
100.0	100.0	4	51	mm	100.0	120	136
Frame#	Time	r_knee			r_shank_antsup			r_ankle			r_calc			r_5meta			r_toe			L_knee			L_shank_antsup			L_ankle			L_calc			L_5meta			L_toe			r_sh2			r_sh3			r_sh4			L_sh2			L_sh3			r_thigh1			r_thigh2			r_thigh3			r_thigh4			r_thigh5			L_thigh1			L_thigh2			L_thigh3			L_thigh4			r.ASIS			r.PSIS			L.ASIS			L.PSIS			C7			R_Shoulder			L_Shoulder			R_Sternum			L_Sternum			R_humerus			R_elbow_med			R_elbow_lat			R_forearm			R_wrist_radius			R_wrist_ulna			L_humerus			L_elbow_med			L_elbow_lat			L_forearm			L_wrist_radius			L_wrist_ulna			R_HJC			L_HJC			R_HJC_reg			L_HJC_reg			
		X1	Y1	Z1	X2	Y2	Z2	X3	Y3	Z3	X4	Y4	Z4	X5	Y5	Z5	X6	Y6	Z6	X7	Y7	Z7	X8	Y8	Z8	X9	Y9	Z9	X10	Y10	Z10	X11	Y11	Z11	X12	Y12	Z12	X13	Y13	Z13	X14	Y14	Z14	X15	Y15	Z15	X16	Y16	Z16	X17	Y17	Z17	X18	Y18	Z18	X19	Y19	Z19	X20	Y20	Z20	X21	Y21	Z21	X22	Y22	Z22	X23	Y23	Z23	X24	Y24	Z24	X25	Y25	Z25	X26	Y26	Z26	X27	Y27	Z27	X28	Y28	Z28	X29	Y29	Z29	X30	Y30	Z30	X31	Y31	Z31	X32	Y32	Z32	X33	Y33	Z33	X34	Y34	Z34	X35	Y35	Z35	X36	Y36	Z36	X37	Y37	Z37	X38	Y38	Z38	X39	Y39	Z39	X40	Y40	Z40	X41	Y41	Z41	X42	Y42	Z42	X43	Y43	Z43	X44	Y44	Z44	X45	Y45	Z45	X46	Y46	Z46	X47	Y47	Z47	X48	Y48	Z48	X49	Y49	Z49	X50	Y50	Z50	X51	Y51	Z51	

120	1.19000000	1417.80064	463.01759	-81.88552	1477.72226	361.28308	-110.05882	1458.60428	83.67517	-139.92160	1408.75639	52.91911	-190.94789	1575.26340	39.25158	-121.07887	1610.16456	62.48747	-165.14537	1165.11667	447.72631	-358.25046	1141.89838	333.13178	-316.48081	899.33915	153.76728	-311.67047	841.23709	152.94189	-263.91847	966.71044	39.39575	-310.23656	1005.66997	42.51441	-256.34596	1488.95462	251.36871	-129.38240	1428.29806	345.00735	-54.75785	1420.64398	236.42720	-82.82069	1108.20342	382.48635	-380.21281	1025.93785	295.37681	-383.56938	1409.39064	776.26150	-75.80618	1447.05670	671.44335	-80.32058	1414.46847	632.91757	-35.47745	1316.53907	738.21301	-26.08503	1357.67605	631.38335	-28.62469	1307.35737	715.58543	-386.24043	1289.50215	580.45914	-375.51357	1199.74560	736.76591	-414.63343	1176.65362	597.60311	-389.76480	1383.29658	918.89539	-109.67280	1192.91345	949.14549	-164.83474	1373.98158	894.33586	-353.88082	1189.09245	945.21206	-282.35979	1193.16582	1398.04608	-219.88354	1236.97469	1362.03077	-65.26995	1268.09500	1377.77044	-372.38801	1321.94213	1350.15646	-191.30739	1325.88223	1348.47744	-236.52198	1230.74164	1233.20286	1.40793	1151.17216	1045.68347	-71.96898	1148.57253	1055.95716	4.40433	1160.49880	935.18777	42.86929	1159.05988	829.59842	54.74169	1122.13616	836.60701	57.15417	1315.57880	1241.85864	-443.04613	1295.66573	1034.54896	-418.56152	1309.34598	1056.08853	-486.66457	1402.35661	1010.50681	-500.78586	1503.77344	931.98415	-483.31449	1489.08255	910.44099	-503.84513	1294.27419	842.50791	-122.38797	1288.46874	823.25985	-310.67691	1312.13482	835.68722	-138.79367	1306.85609	830.27723	-300.71130	
121	1.20000000	1428.97617	464.89832	-82.47677	1485.71452	361.04423	-110.93116	1459.71335	83.91980	-140.24965	1409.04631	53.52414	-191.24727	1575.66497	38.61418	-120.96215	1610.73275	60.97301	-165.32735	1186.60642	445.61221	-359.66554	1160.90646	331.04446	-319.00031	911.45742	162.35759	-313.80095	854.43319	166.25768	-266.43496	970.23954	42.25222	-310.84468	1008.94410	43.52899	-256.87361	1494.31544	250.88856	-130.26903	1436.73368	345.85681	-54.92397	1426.51646	237.37892	-82.65429	1128.49140	382.62939	-382.01574	1042.44248	298.70457	-385.15027	1422.43644	778.47256	-76.05446	1459.57084	673.61431	-81.33539	1427.34826	635.01321	-36.29451	1329.92350	740.55508	-25.21069	1370.66930	633.58397	-28.68704	1322.73758	716.15315	-385.15818	1308.29767	580.39391	-376.51090	1214.53534	735.18261	-412.29066	1195.01712	595.30912	-389.17676	1396.22964	921.69935	-108.80114	1205.60032	951.12682	-164.81211	1387.51129	895.33060	-352.54419	1202.47396	945.93464	-282.56060	1205.29089	1399.40890	-219.17652	1249.34949	1363.48874	-64.59400	1280.01398	1379.16252	-371.80306	1334.11137	1351.77506	-190.75419	1338.01588	1350.09888	-235.92423	1244.36993	1234.44460	1.92103	1166.58573	1046.26906	-71.62378	1163.97206	1056.30497	4.82615	1177.85435	935.52703	42.96684	1178.60127	830.13925	54.84591	1141.27865	836.27002	57.04698	1326.31833	1242.55890	-442.30254	1304.57800	1035.57359	-416.37998	1317.88902	1056.63315	-484.76831	1410.07792	1009.41118	-499.11902	1509.96429	928.85475	-481.78125	1494.96652	907.69052	-502.37714	1307.28715	845.02321	-121.15961	1302.23768	824.22286	-309.30935	1324.94195	838.54100	-137.43795	1320.63677	831.41968	-299.13382	
122	1.21000000	1439.49364	466.60411	-83.24471	1493.09297	360.76453	-111.98510	1460.41515	84.18395	-140.54034	1409.15811	54.00899	-191.54971	1575.88477	38.40754	-120.89886	1610.93285	60.02976	-165.53266	1209.62435	443.25424	-361.24823	1181.29123	329.11745	-321.12888	925.50570	171.50083	-316.06105	870.01307	180.42183	-269.23312	974.52971	46.26542	-311.64102	1013.01002	45.14951	-257.62863	1499.08965	250.38954	-131.31223	1444.61600	346.64472	-55.25190	1431.90097	238.30854	-82.62046	1150.60622	382.47840	-383.91613	1060.95624	301.79098	-386.76053	1435.27597	780.46983	-76.43188	1471.62795	675.47224	-82.61318	1439.73569	636.83812	-37.35000	1343.05440	742.80889	-24.48606	1383.19137	635.61779	-28.93851	1338.41091	716.84283	-384.07834	1327.85188	580.48905	-377.55852	1229.67343	733.25166	-409.94862	1214.20486	592.71419	-388.81635	1408.96124	924.47598	-107.91623	1218.19369	953.23054	-164.80927	1400.59875	896.58295	-351.07312	1215.49462	946.89116	-282.74934	1217.33333	1400.97472	-218.50392	1261.70961	1365.26567	-64.00486	1291.84488	1380.83227	-371.21893	1346.18877	1353.60555	-190.28027	1350.06114	1351.92320	-235.38096	1258.03252	1236.06349	2.41375	1181.94049	1047.27264	-71.23716	1179.42485	1057.01460	5.25593	1195.48993	936.26391	43.02846	1198.78394	831.23571	54.96606	1160.94719	836.27915	56.94411	1336.90375	1243.57711	-441.59066	1313.31322	1036.98930	-413.99923	1326.15669	1057.49472	-482.74371	1417.37823	1008.46452	-497.40276	1515.43705	925.60812	-480.32294	1500.03283	904.90436	-500.93455	1320.00874	847.59273	-119.97612	1315.64601	825.40720	-307.99350	1337.60327	841.51017	-135.98213	1333.90360	832.84427	-297.34445	
123	1.22000000	1449.01798	467.92798	-83.99946	1499.84051	360.37183	-113.08011	1460.89651	84.41138	-140.81155	1409.19713	54.38362	-191.81632	1576.02852	38.39617	-120.90742	1610.95864	59.39438	-165.76164	1233.98856	440.77260	-362.86582	1203.00060	327.48676	-322.81240	941.60874	180.92605	-318.47293	888.13076	195.06404	-272.30672	979.79157	51.40994	-312.60891	1018.05307	47.39449	-258.63479	1503.34207	249.80982	-132.41110	1451.88811	347.24539	-55.65387	1436.83544	239.10700	-82.69174	1174.36305	382.10736	-385.82477	1081.40395	304.62544	-388.39519	1447.86557	782.04571	-76.89227	1483.07171	676.73996	-83.96894	1451.41527	638.20794	-38.42886	1355.83032	744.90803	-23.90753	1395.00208	637.37713	-29.25507	1354.28757	717.63446	-383.08843	1348.01881	580.78051	-378.64531	1245.09448	731.00159	-407.77453	1234.09324	589.87160	-388.69525	1421.56635	927.05575	-107.11616	1230.72284	955.36434	-164.74952	1413.19786	898.03042	-349.60305	1228.14318	948.01365	-282.85365	1229.29866	1402.64081	-217.85782	1274.05889	1367.27602	-63.50450	1303.56007	1382.68852	-370.63530	1358.18241	1355.56916	-189.89154	1362.00654	1353.86967	-234.91136	1271.70797	1237.98889	2.88407	1197.12905	1048.62875	-70.74695	1194.90897	1058.01789	5.71682	1213.38016	937.34121	43.07189	1219.48392	832.79419	55.06556	1181.12208	836.58379	56.88181	1347.33955	1244.83235	-440.90553	1321.85659	1038.72117	-411.47478	1334.17928	1058.60432	-480.62830	1424.28639	1007.62298	-495.66883	1520.23785	922.25350	-478.94363	1504.30700	902.09565	-499.50876	1332.51118	850.06760	-118.90119	1328.63356	826.74907	-306.80213	1350.13876	844.47357	-134.52509	1346.62339	834.46276	-295.46459	
